<svg xmlns="http://www.w3.org/2000/svg" width="174.554" height="178.09"><defs><clipPath id="b"><path data-name="Path 8771" d="M2.85 68.894c0 33.234 32.57 67.747 64.96 67.747h64.59V68.894c0-33.277-28.024-65.344-64.59-65.344-38.8 0-64.96 28.36-64.96 65.344" transform="translate(-2.85 -3.55)" fill="none"/></clipPath><filter id="a" x="0" y="0" width="174.554" height="178.09" filterUnits="userSpaceOnUse"><feOffset dx="3" dy="3"/><feGaussianBlur stdDeviation="7.5" result="blur"/><feFlood flood-opacity=".314"/><feComposite operator="in" in2="blur"/><feComposite in="SourceGraphic"/></filter></defs><g filter="url(#a)"><path data-name="Path 8765" d="M84.46 19.5c36.566 0 64.594 32.067 64.594 65.344v67.746H84.46c-32.382 0-64.96-34.478-64.96-67.747C19.5 47.86 45.661 19.5 84.46 19.5" fill="#fff"/></g><g data-name="Group 6301" transform="translate(19.5 19.5)" clip-path="url(#b)"><path data-name="Path 8766" d="M9.331 136.601v-10.839c.852-.136 1.7-.239 2.608-.349 42.676-5.411 84.1-2.164 118.493 7.669a203.1 203.1 0 00-56.8 14.9c-19.421-6.246-41.227-11.078-64.3-11.376" fill="#759d3f"/><path data-name="Path 8767" d="M34.759 173.227l-16.949-9.323a15.739 15.739 0 01-8.479-14.044v-9.825a213.115 213.115 0 0158.441 11.47 138.05 138.05 0 00-33.013 21.721" fill="#93c13e"/><path data-name="Path 8768" d="M147.15 133.508v15.509a15.722 15.722 0 01-8.522 14.044l-51.931 28.59a17.256 17.256 0 01-16.992 0l-27.481-15.152c23.281-22.872 61.074-39.037 104.926-42.991" fill="#03793e"/><path data-name="Path 8769" d="M147.151 101.176v30.575a295.4 295.4 0 00-118.7-10.984c30.805-15.91 73-22.6 118.7-19.6" fill="#93c13e"/><path data-name="Path 8770" d="M57.742 105.957c-18.517 4.491-35.092 10.32-48.411 18.245v-20.776c14.768-2.011 31.189-.588 48.411 2.556" fill="#03793e"/></g><path data-name="Path 8772" d="M43.65 100.982a3.869 3.869 0 01.051-.767 1.628 1.628 0 01.23-.614 1.074 1.074 0 01.486-.383 1.917 1.917 0 01.852-.153 4.848 4.848 0 01.7.068 1.082 1.082 0 01.554.239c-.06.256-.1.477-.145.673a6.1 6.1 0 00-.085.622 7.753 7.753 0 01-.051.852 9.7 9.7 0 000 1.227c0 1.006-.077 1.892-.145 2.684a11.7 11.7 0 01-.452 2.352c0 .06 0 .085.068.085a5.471 5.471 0 00.767-.707 12.891 12.891 0 00.852-1.048c.281-.392.622-.767.929-1.244s.6-.852.852-1.3c.349-.622.741-1.389 1.167-2.3a17.043 17.043 0 001.014-2.986 1.576 1.576 0 01.349.06 3.408 3.408 0 01.418.136l.375.162a1.082 1.082 0 01.23.153 5.624 5.624 0 01-.452 1.943 13.635 13.635 0 01-.98 1.926 19.846 19.846 0 01-1.219 1.7 29.1 29.1 0 01-1.167 1.415 23.785 23.785 0 01-2.139 2.207 17.81 17.81 0 01-2.556 1.883 2.4 2.4 0 01-.9-.6 1.1 1.1 0 01-.341-.767 2.122 2.122 0 01.119-.605c.085-.23.179-.528.281-.852a9.306 9.306 0 00.273-1.355 14.189 14.189 0 00.128-2.079v-1.458c0-.486-.077-.852-.077-1.091" fill="#94c13d"/><path data-name="Path 8773" d="M58.895 100.387a3.341 3.341 0 00-1.21.443 5.326 5.326 0 00-1.21 1.065 8.369 8.369 0 00-1.057 1.5 8.931 8.931 0 00-.733 1.909 10.072 10.072 0 002.966-2.164 4.636 4.636 0 001.219-2.812zm1.534-.767a7.669 7.669 0 01-.494 2.349 5.113 5.113 0 01-1.133 1.7 7.8 7.8 0 01-1.8 1.329 19.116 19.116 0 01-2.471 1.15v1.176a2.557 2.557 0 00.162.571 1.125 1.125 0 00.307.435.852.852 0 00.511.17 2.787 2.787 0 001.167-.273 5.846 5.846 0 001.091-.648 8.342 8.342 0 00.971-.852c.307-.307.579-.588.852-.852a3.179 3.179 0 01.375.383 10.8 10.8 0 01-2.182 2.241 6.366 6.366 0 01-2.241 1.116 3.588 3.588 0 01-2.369-1.116 3.289 3.289 0 01-.852-2.3 6.817 6.817 0 01.256-1.849 9.314 9.314 0 01.7-1.807 10.643 10.643 0 011.04-1.568 8.47 8.47 0 011.3-1.346 6.416 6.416 0 011.432-.946 3.519 3.519 0 011.474-.332 2.957 2.957 0 011.9 1.261" fill="#94c13d"/><path data-name="Path 8774" d="M61.136 108.32c.068-.426.2-.989.383-1.7s.4-1.44.648-2.224.511-1.585.767-2.369a17.347 17.347 0 01.852-2.147 9.468 9.468 0 01.52-1.065 3.008 3.008 0 01.477-.656 4.208 4.208 0 01.643.145 5.8 5.8 0 01.631.264 4.483 4.483 0 01.554.324 1.7 1.7 0 01.375.315 8.709 8.709 0 00-1.091 1.628 17.69 17.69 0 00-.912 2.3c.767-.707 1.534-1.389 2.1-2.028a16.284 16.284 0 001.7-2.173.75.75 0 01.469-.1 1.968 1.968 0 01.588.094.784.784 0 01.4.281 6.1 6.1 0 00-.349 2.088 3.059 3.059 0 00.29 1.457 1.7 1.7 0 01-.3.511 5.232 5.232 0 01-.605.7 3.681 3.681 0 01-1.7-2.028 14.811 14.811 0 00-1.849 1.457 7.431 7.431 0 00-1.244 1.534 9.033 9.033 0 00-.852 1.96 24.633 24.633 0 00-.7 2.625 1.619 1.619 0 01-.477-.145 4.167 4.167 0 01-.545-.29 4.26 4.26 0 01-.5-.375 1.133 1.133 0 01-.247-.349" fill="#94c13d"/><path data-name="Path 8775" d="M70.758 110.008a3.5 3.5 0 001.006-.648 4.559 4.559 0 00.852-.937 5.547 5.547 0 00.562-1.125 3.707 3.707 0 00.2-1.176 2.479 2.479 0 00-.963.409 5.429 5.429 0 00-1 .852 5.335 5.335 0 00-.767.98 1.7 1.7 0 00-.307.852.912.912 0 00.435.793m7.293-10.022a4.405 4.405 0 01-.145.852 4.737 4.737 0 01-.307.852 2.974 2.974 0 01-.375.605c-.136.162-.256.247-.375.247a.358.358 0 01-.29-.332.852.852 0 01.051-.213 1.056 1.056 0 01.128-.324 2.819 2.819 0 00.119-.349 1.3 1.3 0 00.06-.307.929.929 0 00-.153-.52.426.426 0 00-.383-.213c-.588 0-1.031.366-1.346 1.1a8.863 8.863 0 00-.46 3.23 1.364 1.364 0 000 .264h1.534a.631.631 0 010 .179.375.375 0 01-.085.281l-.724.2a2.76 2.76 0 00-.452.136.307.307 0 00-.2.145.852.852 0 000 .2v.793a4.312 4.312 0 01-1.006 2.974 4.15 4.15 0 01-2.8 1.278 1.9 1.9 0 01-.639-.187 2.642 2.642 0 01-.622-.392 3.2 3.2 0 01-.528-.545 1.935 1.935 0 01-.307-.605 3.826 3.826 0 01.358-1.619 4.534 4.534 0 01.937-1.329 4.781 4.781 0 011.415-.98 4.372 4.372 0 011.832-.392 5.837 5.837 0 00-.1-1.091c-.077-.358-.153-.7-.239-1.04s-.153-.656-.23-.971a3.783 3.783 0 01-.094-.929 2.974 2.974 0 01.239-1.185 4.193 4.193 0 01.648-1.116 3.809 3.809 0 01.92-.852 3.409 3.409 0 011.108-.494 2.088 2.088 0 01.648.392 7.669 7.669 0 01.767.716 6.417 6.417 0 01.707.852 1.977 1.977 0 01.418.69" fill="#94c13d"/><path data-name="Path 8776" d="M79.594 100.301a1.329 1.329 0 01-.2-.554 4.712 4.712 0 01-.094-.767 6.928 6.928 0 001.108.085h.971c.222-.435.46-.852.724-1.3a9.391 9.391 0 01.767-1.176 8.651 8.651 0 01.673-.861 2.19 2.19 0 01.494-.477 3.186 3.186 0 01.562.077 6.528 6.528 0 01.7.2q.332.119.639.256a1.031 1.031 0 01.392.264 17.853 17.853 0 00-1.133 1.534c-.281.46-.656 1.014-1.023 1.628h.852a6.57 6.57 0 00.963-.068.793.793 0 01.179.281.9.9 0 01.068.341 7.107 7.107 0 01-2.633.418c-.366.707-.7 1.415-.98 2.122s-.528 1.372-.724 2.02a17.659 17.659 0 00-.452 1.875 9.178 9.178 0 00-.162 1.534c0 .639.247 1.006.733 1.074a4.841 4.841 0 001.253-.324 4.3 4.3 0 001.065-.622.912.912 0 01.153.332 2.139 2.139 0 01-.46.46c-.2.17-.443.349-.682.52a5.64 5.64 0 01-.767.426 2.088 2.088 0 01-.528.2 2.889 2.889 0 01-1.108-.222 4.746 4.746 0 01-1.031-.537 3.272 3.272 0 01-.767-.767 1.449 1.449 0 01-.281-.758 8.9 8.9 0 01.136-1.346c.1-.537.239-1.125.418-1.755s.375-1.3.614-1.994.494-1.381.767-2.054z" fill="#94c13d"/><path data-name="Path 8777" d="M92.65 100.387a3.213 3.213 0 00-1.236.443 5.326 5.326 0 00-1.21 1.065 8.368 8.368 0 00-1.023 1.525 8.6 8.6 0 00-.767 1.909 10.03 10.03 0 003-2.164 4.482 4.482 0 001.244-2.812zm1.534-.767a7.448 7.448 0 01-.469 2.352 5.113 5.113 0 01-1.142 1.7 7.448 7.448 0 01-1.8 1.329 18.6 18.6 0 01-2.471 1.15v.579a3.528 3.528 0 00.051.6 1.7 1.7 0 00.153.571 1.04 1.04 0 00.307.435.852.852 0 00.5.17 2.8 2.8 0 001.176-.273 6.135 6.135 0 001.091-.648 10.038 10.038 0 00.971-.852 9.192 9.192 0 00.767-.852 3.033 3.033 0 01.392.418 10.584 10.584 0 01-2.173 2.207 6.349 6.349 0 01-2.25 1.125 3.681 3.681 0 01-2.343-1.125 3.213 3.213 0 01-.852-2.3 7.047 7.047 0 01.247-1.841 9.213 9.213 0 01.707-1.815 10.968 10.968 0 011.04-1.6 9.289 9.289 0 011.3-1.346 6.187 6.187 0 011.44-.946 3.409 3.409 0 011.471-.333 2.94 2.94 0 011.9 1.261" fill="#94c13d"/><path data-name="Path 8778" d="M95.402 108.381a13.036 13.036 0 01.153-1.815 20.879 20.879 0 01.452-2.241c.2-.8.435-1.628.707-2.5s.579-1.7.912-2.608.639-1.525 1.031-2.36.852-1.585 1.27-2.343a24.551 24.551 0 011.423-2.2 21.976 21.976 0 011.534-1.9 3.759 3.759 0 01.758.085q.4.1.767.23a4.2 4.2 0 01.707.349 2.412 2.412 0 01.52.4 38.282 38.282 0 00-2.983 3.409 21.4 21.4 0 00-2.071 3.3q-.409.852-.767 1.534c-.23.486-.435.963-.631 1.449s-.366.954-.52 1.432-.3.98-.426 1.534q4.261-5.4 6.289-5.4a2.557 2.557 0 011.236.366 4.09 4.09 0 011.176 1.023 15.338 15.338 0 00-1.415 1.807 27.677 27.677 0 00-1.338 2.13 17.229 17.229 0 00-.989 1.986 3.852 3.852 0 00-.392 1.363.392.392 0 00.068.29.332.332 0 00.281.077 1.116 1.116 0 00.528-.085 1.21 1.21 0 01.247-.085 1.287 1.287 0 01.128.239.281.281 0 010 .119q0 .077-.256.256a6.3 6.3 0 01-.631.324l-.724.3a1.56 1.56 0 01-.528.136.852.852 0 01-.436-.135 1.244 1.244 0 01-.383-.315 1.8 1.8 0 01-.264-.443 1.3 1.3 0 01-.1-.5 3.835 3.835 0 01.2-.989c.119-.435.3-.937.52-1.534s.477-1.219.767-1.917.639-1.4 1-2.113a.094.094 0 00-.077-.094 1.3 1.3 0 00-.341.179l-.52.358a11.36 11.36 0 00-1.6 1.466 22.1 22.1 0 00-1.534 1.909 25 25 0 00-1.44 2.2 20.75 20.75 0 00-1.2 2.309.8.8 0 01-.2.281.315.315 0 01-.222.136.571.571 0 01-.187-.162 1.551 1.551 0 01-.222-.383l-.197-.471a1.4 1.4 0 01-.077-.375" fill="#94c13d"/><path data-name="Path 8779" d="M113.425 100.387a3.238 3.238 0 00-1.236.486 5.505 5.505 0 00-1.21 1.057 8.743 8.743 0 00-1.023 1.534 9.033 9.033 0 00-.733 1.9 9.843 9.843 0 002.94-2.173 4.525 4.525 0 001.278-2.838zm1.534-.767a7.473 7.473 0 01-.486 2.352 5.113 5.113 0 01-1.133 1.7 7.865 7.865 0 01-1.8 1.329 18.919 18.919 0 01-2.5 1.15v.579a4.68 4.68 0 000 .6 3.127 3.127 0 00.153.571 1.142 1.142 0 00.315.435.852.852 0 00.5.17 2.8 2.8 0 001.176-.273 6.135 6.135 0 001.091-.648 11.4 11.4 0 00.971-.852l.767-.852a5.327 5.327 0 01.375.383 10.8 10.8 0 01-2.173 2.19 6.366 6.366 0 01-2.241 1.116 3.613 3.613 0 01-2.378-1.116 3.289 3.289 0 01-.852-2.3 6.817 6.817 0 01.256-1.849 9.143 9.143 0 01.707-1.807 9.971 9.971 0 011.1-1.568 8.471 8.471 0 011.3-1.346 6.136 6.136 0 011.432-.946 3.409 3.409 0 011.474-.332 2.923 2.923 0 011.892 1.261" fill="#94c13d"/><path data-name="Path 8780" d="M119.773 98.052a2.386 2.386 0 011.082.767 3.886 3.886 0 01.767 1.338 9.6 9.6 0 01-.767 1.432c-.341.562-.673 1.133-1.014 1.7s-.639 1.133-.92 1.653a4.737 4.737 0 00-.477 1.3c.239-.247.5-.537.767-.852s.571-.665.852-1l.767-.9c.239-.273.426-.477.554-.605l1-1.031a15.186 15.186 0 011.21-1.1 9.9 9.9 0 011.27-.852 2.352 2.352 0 011.167-.366 1.3 1.3 0 01.963.392 3.127 3.127 0 01.605.767.409.409 0 01-.17.119 1.7 1.7 0 00-.469.426 7.337 7.337 0 00-.69 1.091 16.062 16.062 0 00-.767 1.534 11.59 11.59 0 00-.614 1.645 5.539 5.539 0 00-.239 1.534 1.193 1.193 0 00.136.707.579.579 0 00.418.153 1.3 1.3 0 00.5-.111 1.21 1.21 0 01.426-.111.341.341 0 01.136.187.7.7 0 01.06.256 3.868 3.868 0 01-.426.307 3.663 3.663 0 01-.5.29 3.971 3.971 0 01-.52.222 1.372 1.372 0 01-.452.085 2.463 2.463 0 01-1.048-.187 1.619 1.619 0 01-.963-1.261 4.039 4.039 0 010-1.508 3.1 3.1 0 01.17-.767c.068-.256.222-.665.383-1.091s.366-.92.614-1.534c-.2.094-.4.2-.6.307a6.111 6.111 0 00-1.193.954 26.844 26.844 0 00-1.866 1.968 47.913 47.913 0 00-1.7 2.164c-.324.46-.614.852-.852 1.159a2.556 2.556 0 01-.631.622 1.611 1.611 0 01-.69-.758 4.993 4.993 0 01-.332-.989 5.6 5.6 0 01.128-1.065c.077-.418.187-.852.324-1.415a15.888 15.888 0 01.52-1.645c.2-.571.443-1.15.682-1.7a25.753 25.753 0 011.534-3.068 6.076 6.076 0 01.852-1.108" fill="#94c13d"/><path data-name="Path 8781" d="M42.713 72.087V45.968h5.471v21.781h8.172v4.337z" fill="#022e2a"/><path data-name="Path 8782" d="M69.905 50.988h-.07l-2.488 11.3h5.208zm-10.55 21.1L66.59 45.96h7.192l7.1 26.127H75.12l-1.44-5.786h-7.457l-1.483 5.786z" fill="#022e2a"/><path data-name="Path 8783" d="M84.929 72.087V45.968h7.38l6.94 18.091h.077V45.968h5.113v26.119h-7.205l-7.133-19.1h-.068v19.1z" fill="#022e2a"/><path data-name="Path 8784" d="M115.394 68.074h2.642c3.323 0 3.98-2.505 3.98-9.05 0-4.815 0-9.041-3.835-9.041h-2.824zm-5.437-22.114h9.127c7.158 0 8.522 4.781 8.522 12.919 0 4.014.614 13.208-8.718 13.208h-8.931z" fill="#022e2a"/><path data-name="Path 8785" d="M129.446 77.83v1.542h2.164v7.78h1.951v-7.78h2.173V77.83zm-6.617 9.322v-4.064h2.77v-1.436h-2.77v-2.391h2.9V77.83h-4.849v9.322zm-9-3.5h-1.869l.895-4.031zm-2.778 3.5l.528-2.062h2.642l.52 2.062h2.037l-2.556-9.323h-2.561l-2.556 9.323zm-10.229-5.59V77.83h-1.943v9.322h1.95v-4.158h2.233v4.158h1.951V77.83h-1.96v3.732zm-9.041 5.744c1.815 0 2.812-.8 2.812-3.289h-1.926c0 .733 0 1.9-.852 1.9-1.1 0-1.244-1.04-1.244-3.409s.145-3.409 1.244-3.409c.579 0 .8.469.8 1.7h1.914c.077-2-.724-3.1-2.71-3.1-3.221 0-3.221 2.352-3.221 4.823s0 4.815 3.221 4.815m-7.512-2.685c0-2.94-3.928-2.778-3.928-4.551a.912.912 0 011.006-1c.793 0 .9.707.9 1.406h1.9c.128-1.951-.852-2.8-2.71-2.8-2.378 0-3.076 1.167-3.076 2.625 0 2.778 3.928 2.88 3.928 4.559a.937.937 0 01-.98 1.065c-1.074 0-1.116-.75-1.116-1.645h-1.949c-.1 1.619.349 3.034 2.77 3.034 1.483 0 3.255-.281 3.255-2.693M68.116 77.83v1.542h2.173v7.78h1.951v-7.78h2.164V77.83zm-7.78 5.462h.5c1.5 0 1.4.937 1.4 2.054a4.193 4.193 0 00.213 1.806h1.917a12.885 12.885 0 01-.222-2.735 1.7 1.7 0 00-1.7-1.841 2.011 2.011 0 001.7-2.284c0-1.585-.852-2.437-2.19-2.437h-3.561v9.3h1.951zm0-4.031h.852c.622 0 1 .332 1 1.227 0 .6-.222 1.372-1 1.372h-.852zm-6.493-1.432h-1.952v9.323h1.951zm-15.467 9.323h2.113l1.619-6.817 1.457 6.817h2.156l2.13-9.323h-1.908l-1.167 6.545-1.423-6.545h-2.3l-1.466 6.545-1.21-6.545h-2.038z" fill="#032f2b"/></svg>